<svg width="30" height="30" viewBox="0 0 30 30" fill="none" xmlns="http://www.w3.org/2000/svg">
<g clip-path="url(#clip0_31_1131)">
<path d="M10.0019 26.25H4.26312C3.98105 26.2493 3.75254 26.0208 3.75189 25.7388V4.26123C3.75259 3.97916 3.98105 3.75064 4.26312 3.75H10.0019C11.0374 3.75 11.8769 2.91053 11.8769 1.875C11.8769 0.839473 11.0374 0 10.0019 0H4.26312C1.91082 0.00275391 0.004646 1.90898 0.00189209 4.26123V25.7387C0.004646 28.091 1.91082 29.9972 4.26312 30H10.0019C11.0374 30 11.8769 29.1605 11.8769 28.125C11.8769 27.0895 11.0374 26.25 10.0019 26.25Z" fill="#7905ED"/>
<path d="M28.3543 11.0225L23.5018 6.17378C22.7694 5.44166 21.5821 5.44195 20.8499 6.17443C20.1178 6.90691 20.1181 8.09419 20.8506 8.82632L25.1156 13.0901L8.12683 13.1251C7.0913 13.1251 6.25183 13.9645 6.25183 15.0001C6.25183 16.0356 7.0913 16.8751 8.12683 16.8751L25.1844 16.8438L20.8506 21.1776C20.145 21.9356 20.1875 23.122 20.9454 23.8276C21.6658 24.4982 22.7821 24.4976 23.5018 23.8263L28.3506 18.9776C30.5473 16.7809 30.5473 13.2193 28.3506 11.0227L28.3506 11.0226L28.3543 11.0225Z" fill="#7905ED"/>
</g>
<defs>
<clipPath id="clip0_31_1131">
<rect width="30" height="30" fill="white"/>
</clipPath>
</defs>
</svg>
